<svg xmlns="http://www.w3.org/2000/svg" xmlns:xlink="http://www.w3.org/1999/xlink" width="559" zoomAndPan="magnify" viewBox="0 0 419.25 198.749995" height="265" preserveAspectRatio="xMidYMid meet" version="1.0"><defs><g/><clipPath id="0c8a28434d"><path d="M 0.894531 0.613281 L 122 0.613281 L 122 109.617188 L 0.894531 109.617188 Z M 0.894531 0.613281 " clip-rule="nonzero"/></clipPath><clipPath id="9a8db6f57f"><path d="M 132 18 L 371.835938 18 L 371.835938 109 L 132 109 Z M 132 18 " clip-rule="nonzero"/></clipPath><clipPath id="005ae15adc"><rect x="0" width="240" y="0" height="91"/></clipPath><clipPath id="2949641202"><rect x="0" width="372" y="0" height="110"/></clipPath></defs><g transform="matrix(1, 0, 0, 1, 11, 44)"><g clip-path="url(#2949641202)"><g clip-path="url(#0c8a28434d)"><path fill="#ffffff" d="M 45.625 0.617188 C 45.230469 0.617188 44.835938 0.65625 44.445312 0.734375 C 44.058594 0.808594 43.679688 0.925781 43.3125 1.078125 C 42.945312 1.230469 42.597656 1.414062 42.265625 1.636719 C 41.9375 1.855469 41.632812 2.105469 41.351562 2.386719 C 41.070312 2.667969 40.820312 2.972656 40.601562 3.304688 C 40.378906 3.632812 40.191406 3.980469 40.042969 4.347656 C 39.890625 4.714844 39.773438 5.09375 39.695312 5.480469 C 39.621094 5.871094 39.582031 6.265625 39.582031 6.660156 C 39.582031 7.058594 39.621094 7.449219 39.695312 7.839844 C 39.773438 8.230469 39.890625 8.609375 40.042969 8.972656 C 40.191406 9.339844 40.378906 9.6875 40.601562 10.019531 C 40.820312 10.347656 41.070312 10.65625 41.351562 10.933594 C 41.632812 11.214844 41.9375 11.464844 42.265625 11.6875 C 42.597656 11.90625 42.945312 12.09375 43.3125 12.246094 C 43.679688 12.398438 44.058594 12.511719 44.445312 12.589844 C 44.835938 12.667969 45.230469 12.707031 45.625 12.707031 C 46.023438 12.707031 46.414062 12.667969 46.804688 12.589844 C 47.195312 12.511719 47.570312 12.398438 47.9375 12.246094 C 48.304688 12.09375 48.652344 11.90625 48.984375 11.6875 C 49.3125 11.464844 49.617188 11.214844 49.898438 10.933594 C 50.179688 10.65625 50.429688 10.347656 50.652344 10.019531 C 50.871094 9.6875 51.058594 9.339844 51.210938 8.972656 C 51.363281 8.609375 51.476562 8.230469 51.554688 7.839844 C 51.632812 7.449219 51.671875 7.058594 51.671875 6.660156 C 51.671875 6.265625 51.632812 5.871094 51.554688 5.480469 C 51.476562 5.09375 51.363281 4.714844 51.210938 4.347656 C 51.058594 3.980469 50.871094 3.632812 50.652344 3.304688 C 50.429688 2.972656 50.179688 2.667969 49.898438 2.386719 C 49.617188 2.105469 49.3125 1.855469 48.984375 1.636719 C 48.652344 1.414062 48.304688 1.230469 47.9375 1.078125 C 47.570312 0.925781 47.195312 0.808594 46.804688 0.734375 C 46.414062 0.65625 46.023438 0.617188 45.625 0.617188 Z M 77.058594 0.617188 C 76.660156 0.617188 76.265625 0.65625 75.878906 0.734375 C 75.488281 0.808594 75.109375 0.925781 74.742188 1.078125 C 74.378906 1.230469 74.027344 1.414062 73.699219 1.636719 C 73.367188 1.855469 73.0625 2.105469 72.78125 2.386719 C 72.503906 2.667969 72.25 2.972656 72.03125 3.304688 C 71.8125 3.632812 71.625 3.980469 71.472656 4.347656 C 71.320312 4.714844 71.207031 5.09375 71.128906 5.480469 C 71.050781 5.871094 71.011719 6.265625 71.011719 6.660156 C 71.011719 7.058594 71.050781 7.449219 71.128906 7.839844 C 71.207031 8.230469 71.320312 8.609375 71.472656 8.972656 C 71.625 9.339844 71.8125 9.6875 72.03125 10.019531 C 72.25 10.347656 72.503906 10.65625 72.78125 10.933594 C 73.0625 11.214844 73.367188 11.464844 73.699219 11.6875 C 74.027344 11.90625 74.378906 12.09375 74.742188 12.246094 C 75.109375 12.398438 75.488281 12.511719 75.878906 12.589844 C 76.265625 12.667969 76.660156 12.707031 77.058594 12.707031 C 77.453125 12.707031 77.847656 12.667969 78.238281 12.589844 C 78.625 12.511719 79.003906 12.398438 79.371094 12.246094 C 79.738281 12.09375 80.085938 11.90625 80.414062 11.6875 C 80.746094 11.464844 81.050781 11.214844 81.332031 10.933594 C 81.613281 10.65625 81.863281 10.347656 82.082031 10.019531 C 82.304688 9.6875 82.488281 9.339844 82.640625 8.972656 C 82.792969 8.609375 82.910156 8.230469 82.984375 7.839844 C 83.0625 7.449219 83.101562 7.058594 83.101562 6.660156 C 83.101562 6.265625 83.0625 5.871094 82.984375 5.480469 C 82.910156 5.09375 82.792969 4.714844 82.640625 4.347656 C 82.488281 3.980469 82.304688 3.632812 82.082031 3.304688 C 81.863281 2.972656 81.613281 2.667969 81.332031 2.386719 C 81.050781 2.105469 80.746094 1.855469 80.414062 1.636719 C 80.085938 1.414062 79.738281 1.230469 79.371094 1.078125 C 79.003906 0.925781 78.625 0.808594 78.238281 0.734375 C 77.847656 0.65625 77.453125 0.617188 77.058594 0.617188 Z M 83.164062 22.3125 C 82.75 22.308594 82.359375 22.40625 81.996094 22.601562 C 81.632812 22.800781 81.335938 23.074219 81.113281 23.421875 C 81.113281 23.421875 73.277344 34.464844 61.339844 34.464844 C 49.40625 34.464844 41.570312 23.421875 41.570312 23.421875 C 41.339844 23.078125 41.042969 22.8125 40.675781 22.621094 C 40.3125 22.429688 39.921875 22.339844 39.511719 22.347656 C 39.0625 22.359375 38.648438 22.484375 38.269531 22.722656 C 37.890625 22.960938 37.601562 23.28125 37.402344 23.679688 C 37.199219 24.082031 37.117188 24.503906 37.152344 24.953125 C 37.1875 25.398438 37.332031 25.804688 37.59375 26.167969 C 37.59375 26.167969 46.496094 39.300781 61.339844 39.300781 C 76.1875 39.300781 85.089844 26.167969 85.089844 26.167969 C 85.359375 25.804688 85.515625 25.394531 85.554688 24.941406 C 85.597656 24.488281 85.515625 24.054688 85.3125 23.648438 C 85.105469 23.242188 84.8125 22.917969 84.425781 22.675781 C 84.039062 22.4375 83.617188 22.3125 83.164062 22.3125 Z M 29.949219 29.105469 C 29.644531 29.105469 29.355469 29.160156 29.074219 29.273438 L 14.566406 34.617188 C 14.203125 34.734375 13.886719 34.925781 13.613281 35.195312 C 13.339844 35.460938 13.140625 35.777344 13.019531 36.136719 L 1.265625 54.945312 C 1.167969 55.097656 1.09375 55.261719 1.035156 55.429688 C 0.972656 55.597656 0.933594 55.773438 0.914062 55.949219 C 0.894531 56.128906 0.894531 56.308594 0.914062 56.484375 C 0.933594 56.664062 0.972656 56.839844 1.027344 57.007812 C 1.085938 57.179688 1.164062 57.339844 1.257812 57.492188 C 1.351562 57.644531 1.460938 57.785156 1.585938 57.914062 C 1.710938 58.042969 1.847656 58.15625 2 58.253906 C 2.148438 58.351562 2.308594 58.429688 2.476562 58.492188 L 12.984375 62.367188 L 12.984375 90.074219 C 12.984375 90.582031 13.128906 91.042969 13.421875 91.457031 C 13.710938 91.871094 14.09375 92.167969 14.566406 92.34375 L 60.503906 109.265625 C 61.0625 109.472656 61.621094 109.472656 62.175781 109.265625 L 108.117188 92.34375 C 108.589844 92.167969 108.972656 91.871094 109.261719 91.457031 C 109.550781 91.042969 109.699219 90.582031 109.699219 90.074219 L 109.699219 62.367188 L 120.203125 58.492188 C 120.375 58.429688 120.53125 58.351562 120.683594 58.253906 C 120.832031 58.15625 120.972656 58.042969 121.097656 57.914062 C 121.222656 57.785156 121.332031 57.644531 121.425781 57.492188 C 121.519531 57.339844 121.597656 57.179688 121.652344 57.007812 C 121.710938 56.839844 121.75 56.664062 121.769531 56.484375 C 121.789062 56.308594 121.789062 56.128906 121.769531 55.949219 C 121.75 55.773438 121.707031 55.597656 121.648438 55.429688 C 121.589844 55.261719 121.511719 55.097656 121.417969 54.945312 L 109.660156 36.128906 C 109.535156 35.769531 109.335938 35.457031 109.066406 35.191406 C 108.792969 34.925781 108.476562 34.734375 108.117188 34.617188 C 108.085938 34.605469 108.054688 34.59375 108.019531 34.585938 L 93.609375 29.273438 C 93.304688 29.152344 92.988281 29.101562 92.660156 29.109375 C 92.378906 29.121094 92.109375 29.179688 91.847656 29.285156 C 91.585938 29.390625 91.351562 29.535156 91.140625 29.722656 C 90.929688 29.910156 90.757812 30.125 90.625 30.371094 C 90.492188 30.621094 90.402344 30.882812 90.359375 31.160156 C 90.316406 31.4375 90.324219 31.714844 90.375 31.988281 C 90.429688 32.265625 90.527344 32.523438 90.671875 32.765625 C 90.816406 33.007812 90.996094 33.21875 91.214844 33.394531 C 91.429688 33.574219 91.671875 33.710938 91.9375 33.804688 L 100.289062 36.882812 L 61.339844 51.234375 L 22.390625 36.882812 L 30.746094 33.804688 C 31.015625 33.710938 31.257812 33.570312 31.480469 33.390625 C 31.699219 33.210938 31.882812 32.996094 32.027344 32.75 C 32.171875 32.503906 32.269531 32.242188 32.320312 31.960938 C 32.371094 31.679688 32.375 31.402344 32.324219 31.121094 C 32.277344 30.839844 32.183594 30.574219 32.042969 30.328125 C 31.902344 30.078125 31.722656 29.863281 31.503906 29.679688 C 31.285156 29.496094 31.042969 29.351562 30.777344 29.253906 C 30.507812 29.15625 30.234375 29.105469 29.949219 29.105469 Z M 16.414062 39.832031 L 57.71875 55.046875 L 57.71875 55.050781 L 48.246094 70.203125 L 6.9375 54.988281 Z M 106.269531 39.832031 L 115.746094 54.988281 L 74.4375 70.203125 L 64.96875 55.050781 Z M 58.921875 62.234375 L 58.921875 103.53125 L 17.820312 88.390625 L 17.820312 64.144531 L 48.417969 75.417969 C 48.675781 75.515625 48.945312 75.5625 49.222656 75.566406 C 49.5 75.570312 49.773438 75.527344 50.035156 75.4375 C 50.296875 75.347656 50.539062 75.214844 50.753906 75.042969 C 50.972656 74.871094 51.15625 74.667969 51.300781 74.429688 Z M 63.757812 62.234375 L 71.382812 74.429688 C 71.527344 74.667969 71.710938 74.871094 71.929688 75.042969 C 72.144531 75.214844 72.386719 75.347656 72.648438 75.4375 C 72.910156 75.527344 73.179688 75.570312 73.460938 75.566406 C 73.738281 75.5625 74.003906 75.515625 74.265625 75.417969 L 104.863281 64.144531 L 104.863281 88.390625 L 63.757812 103.53125 Z M 63.757812 62.234375 " fill-opacity="1" fill-rule="nonzero"/></g><g clip-path="url(#9a8db6f57f)"><g transform="matrix(1, 0, 0, 1, 132, 18)"><g clip-path="url(#005ae15adc)"><g fill="#ffffff" fill-opacity="1"><g transform="translate(0.734809, 71.724432)"><g><path d="M 22.421875 -24.328125 C 16.242188 -26.097656 11.75 -28.273438 8.9375 -30.859375 C 6.125 -33.453125 4.71875 -36.644531 4.71875 -40.4375 C 4.71875 -44.738281 6.4375 -48.296875 9.875 -51.109375 C 13.3125 -53.921875 17.78125 -55.328125 23.28125 -55.328125 C 27.03125 -55.328125 30.367188 -54.601562 33.296875 -53.15625 C 36.234375 -51.707031 38.507812 -49.707031 40.125 -47.15625 C 41.738281 -44.601562 42.546875 -41.816406 42.546875 -38.796875 L 35.3125 -38.796875 C 35.3125 -42.097656 34.257812 -44.691406 32.15625 -46.578125 C 30.0625 -48.460938 27.101562 -49.40625 23.28125 -49.40625 C 19.726562 -49.40625 16.957031 -48.625 14.96875 -47.0625 C 12.988281 -45.5 12 -43.332031 12 -40.5625 C 12 -38.332031 12.941406 -36.445312 14.828125 -34.90625 C 16.710938 -33.375 19.921875 -31.96875 24.453125 -30.6875 C 28.992188 -29.414062 32.539062 -28.007812 35.09375 -26.46875 C 37.65625 -24.9375 39.554688 -23.144531 40.796875 -21.09375 C 42.035156 -19.050781 42.65625 -16.644531 42.65625 -13.875 C 42.65625 -9.445312 40.929688 -5.898438 37.484375 -3.234375 C 34.035156 -0.578125 29.425781 0.75 23.65625 0.75 C 19.90625 0.75 16.40625 0.03125 13.15625 -1.40625 C 9.90625 -2.84375 7.398438 -4.8125 5.640625 -7.3125 C 3.878906 -9.8125 3 -12.644531 3 -15.8125 L 10.234375 -15.8125 C 10.234375 -12.519531 11.453125 -9.914062 13.890625 -8 C 16.328125 -6.09375 19.582031 -5.140625 23.65625 -5.140625 C 27.445312 -5.140625 30.351562 -5.910156 32.375 -7.453125 C 34.40625 -9.003906 35.421875 -11.113281 35.421875 -13.78125 C 35.421875 -16.457031 34.484375 -18.523438 32.609375 -19.984375 C 30.734375 -21.453125 27.335938 -22.898438 22.421875 -24.328125 Z M 22.421875 -24.328125 "/></g></g></g><g fill="#ffffff" fill-opacity="1"><g transform="translate(46.274603, 71.724432)"><g><path d="M 14.65625 -50.375 L 14.65625 -40.5625 L 22.234375 -40.5625 L 22.234375 -35.203125 L 14.65625 -35.203125 L 14.65625 -10.046875 C 14.65625 -8.421875 14.992188 -7.203125 15.671875 -6.390625 C 16.347656 -5.578125 17.492188 -5.171875 19.109375 -5.171875 C 19.910156 -5.171875 21.015625 -5.320312 22.421875 -5.625 L 22.421875 0 C 20.585938 0.5 18.8125 0.75 17.09375 0.75 C 13.988281 0.75 11.648438 -0.1875 10.078125 -2.0625 C 8.503906 -3.9375 7.71875 -6.597656 7.71875 -10.046875 L 7.71875 -35.203125 L 0.34375 -35.203125 L 0.34375 -40.5625 L 7.71875 -40.5625 L 7.71875 -50.375 Z M 14.65625 -50.375 "/></g></g></g><g fill="#ffffff" fill-opacity="1"><g transform="translate(71.349602, 71.724432)"><g><path d="M 3.40625 -20.65625 C 3.40625 -24.625 4.1875 -28.195312 5.75 -31.375 C 7.3125 -34.550781 9.484375 -37 12.265625 -38.71875 C 15.054688 -40.445312 18.238281 -41.3125 21.8125 -41.3125 C 27.332031 -41.3125 31.796875 -39.398438 35.203125 -35.578125 C 38.617188 -31.753906 40.328125 -26.664062 40.328125 -20.3125 L 40.328125 -19.828125 C 40.328125 -15.878906 39.570312 -12.335938 38.0625 -9.203125 C 36.550781 -6.066406 34.390625 -3.625 31.578125 -1.875 C 28.765625 -0.125 25.535156 0.75 21.890625 0.75 C 16.390625 0.75 11.929688 -1.160156 8.515625 -4.984375 C 5.109375 -8.804688 3.40625 -13.867188 3.40625 -20.171875 Z M 10.390625 -19.828125 C 10.390625 -15.328125 11.429688 -11.710938 13.515625 -8.984375 C 15.597656 -6.265625 18.390625 -4.90625 21.890625 -4.90625 C 25.410156 -4.90625 28.207031 -6.285156 30.28125 -9.046875 C 32.351562 -11.804688 33.390625 -15.675781 33.390625 -20.65625 C 33.390625 -25.101562 32.332031 -28.707031 30.21875 -31.46875 C 28.113281 -34.226562 25.3125 -35.609375 21.8125 -35.609375 C 18.394531 -35.609375 15.632812 -34.242188 13.53125 -31.515625 C 11.4375 -28.796875 10.390625 -24.898438 10.390625 -19.828125 Z M 10.390625 -19.828125 "/></g></g></g><g fill="#ffffff" fill-opacity="1"><g transform="translate(115.127778, 71.724432)"><g><path d="M 16.5625 -18.78125 L 12.21875 -14.25 L 12.21875 0 L 5.28125 0 L 5.28125 -57.578125 L 12.21875 -57.578125 L 12.21875 -22.75 L 15.9375 -27.21875 L 28.5625 -40.5625 L 37 -40.5625 L 21.21875 -23.609375 L 38.828125 0 L 30.703125 0 Z M 16.5625 -18.78125 "/></g></g></g><g fill="#ffffff" fill-opacity="1"><g transform="translate(154.033372, 71.724432)"><g><path d="M 12.78125 0 L 5.84375 0 L 5.84375 -40.5625 L 12.78125 -40.5625 Z M 5.28125 -51.3125 C 5.28125 -52.4375 5.625 -53.382812 6.3125 -54.15625 C 7 -54.9375 8.015625 -55.328125 9.359375 -55.328125 C 10.710938 -55.328125 11.738281 -54.9375 12.4375 -54.15625 C 13.144531 -53.382812 13.5 -52.4375 13.5 -51.3125 C 13.5 -50.1875 13.144531 -49.25 12.4375 -48.5 C 11.738281 -47.75 10.710938 -47.375 9.359375 -47.375 C 8.015625 -47.375 7 -47.75 6.3125 -48.5 C 5.625 -49.25 5.28125 -50.1875 5.28125 -51.3125 Z M 5.28125 -51.3125 "/></g></g></g><g fill="#ffffff" fill-opacity="1"><g transform="translate(172.661591, 71.724432)"><g><path d="M 14.65625 -50.375 L 14.65625 -40.5625 L 22.234375 -40.5625 L 22.234375 -35.203125 L 14.65625 -35.203125 L 14.65625 -10.046875 C 14.65625 -8.421875 14.992188 -7.203125 15.671875 -6.390625 C 16.347656 -5.578125 17.492188 -5.171875 19.109375 -5.171875 C 19.910156 -5.171875 21.015625 -5.320312 22.421875 -5.625 L 22.421875 0 C 20.585938 0.5 18.8125 0.75 17.09375 0.75 C 13.988281 0.75 11.648438 -0.1875 10.078125 -2.0625 C 8.503906 -3.9375 7.71875 -6.597656 7.71875 -10.046875 L 7.71875 -35.203125 L 0.34375 -35.203125 L 0.34375 -40.5625 L 7.71875 -40.5625 L 7.71875 -50.375 Z M 14.65625 -50.375 "/></g></g></g><g fill="#ffffff" fill-opacity="1"><g transform="translate(197.736596, 71.724432)"><g><path d="M 30.28125 0 C 29.882812 -0.800781 29.5625 -2.222656 29.3125 -4.265625 C 26.082031 -0.921875 22.234375 0.75 17.765625 0.75 C 13.765625 0.75 10.484375 -0.378906 7.921875 -2.640625 C 5.359375 -4.898438 4.078125 -7.769531 4.078125 -11.25 C 4.078125 -15.46875 5.679688 -18.742188 8.890625 -21.078125 C 12.109375 -23.421875 16.628906 -24.59375 22.453125 -24.59375 L 29.203125 -24.59375 L 29.203125 -27.78125 C 29.203125 -30.195312 28.472656 -32.125 27.015625 -33.5625 C 25.566406 -35 23.429688 -35.71875 20.609375 -35.71875 C 18.140625 -35.71875 16.066406 -35.09375 14.390625 -33.84375 C 12.710938 -32.59375 11.875 -31.082031 11.875 -29.3125 L 4.90625 -29.3125 C 4.90625 -31.332031 5.625 -33.285156 7.0625 -35.171875 C 8.5 -37.066406 10.445312 -38.5625 12.90625 -39.65625 C 15.375 -40.757812 18.082031 -41.3125 21.03125 -41.3125 C 25.695312 -41.3125 29.351562 -40.140625 32 -37.796875 C 34.65625 -35.460938 36.035156 -32.25 36.140625 -28.15625 L 36.140625 -9.484375 C 36.140625 -5.753906 36.613281 -2.789062 37.5625 -0.59375 L 37.5625 0 Z M 18.78125 -5.28125 C 20.957031 -5.28125 23.019531 -5.84375 24.96875 -6.96875 C 26.914062 -8.09375 28.328125 -9.554688 29.203125 -11.359375 L 29.203125 -19.671875 L 23.765625 -19.671875 C 15.265625 -19.671875 11.015625 -17.1875 11.015625 -12.21875 C 11.015625 -10.039062 11.738281 -8.335938 13.1875 -7.109375 C 14.644531 -5.890625 16.507812 -5.28125 18.78125 -5.28125 Z M 18.78125 -5.28125 "/></g></g></g></g></g></g></g></g></svg>