<svg xmlns="http://www.w3.org/2000/svg" xmlns:xlink="http://www.w3.org/1999/xlink" width="2000" zoomAndPan="magnify" viewBox="0 0 1500 1499.999933" height="2000" preserveAspectRatio="xMidYMid meet" version="1.0"><defs><g/><clipPath id="bea6363736"><path d="M 106.019531 572.128906 L 501 572.128906 L 501 927.628906 L 106.019531 927.628906 Z M 106.019531 572.128906 " clip-rule="nonzero"/></clipPath><clipPath id="8f6e7be95b"><rect x="0" width="781" y="0" height="295"/></clipPath></defs><g clip-path="url(#bea6363736)"><path fill="#ffffff" d="M 251.976562 572.484375 C 251.328125 572.484375 250.683594 572.515625 250.042969 572.578125 C 249.398438 572.644531 248.761719 572.738281 248.128906 572.863281 C 247.492188 572.988281 246.867188 573.148438 246.25 573.335938 C 245.632812 573.523438 245.023438 573.738281 244.425781 573.984375 C 243.832031 574.234375 243.246094 574.507812 242.675781 574.8125 C 242.109375 575.117188 241.554688 575.449219 241.015625 575.808594 C 240.480469 576.167969 239.960938 576.550781 239.460938 576.960938 C 238.964844 577.371094 238.484375 577.804688 238.027344 578.261719 C 237.570312 578.71875 237.136719 579.195312 236.730469 579.695312 C 236.320312 580.195312 235.933594 580.714844 235.574219 581.25 C 235.21875 581.789062 234.886719 582.339844 234.582031 582.910156 C 234.277344 583.480469 234 584.0625 233.753906 584.660156 C 233.507812 585.257812 233.289062 585.863281 233.101562 586.484375 C 232.914062 587.101562 232.757812 587.726562 232.628906 588.359375 C 232.503906 588.992188 232.410156 589.632812 232.347656 590.273438 C 232.285156 590.917969 232.25 591.5625 232.25 592.207031 C 232.25 592.855469 232.285156 593.5 232.347656 594.140625 C 232.410156 594.785156 232.503906 595.421875 232.628906 596.054688 C 232.757812 596.691406 232.914062 597.316406 233.101562 597.933594 C 233.289062 598.550781 233.507812 599.160156 233.753906 599.757812 C 234 600.351562 234.277344 600.9375 234.582031 601.507812 C 234.886719 602.074219 235.21875 602.628906 235.574219 603.167969 C 235.933594 603.703125 236.320312 604.222656 236.730469 604.722656 C 237.136719 605.21875 237.570312 605.699219 238.027344 606.15625 C 238.484375 606.613281 238.964844 607.046875 239.460938 607.453125 C 239.960938 607.863281 240.480469 608.25 241.015625 608.609375 C 241.554688 608.96875 242.109375 609.296875 242.675781 609.601562 C 243.246094 609.90625 243.832031 610.183594 244.425781 610.429688 C 245.023438 610.679688 245.632812 610.894531 246.25 611.082031 C 246.867188 611.269531 247.492188 611.425781 248.128906 611.554688 C 248.761719 611.679688 249.398438 611.773438 250.042969 611.835938 C 250.683594 611.902344 251.328125 611.933594 251.976562 611.933594 C 252.621094 611.933594 253.265625 611.902344 253.910156 611.835938 C 254.550781 611.773438 255.191406 611.679688 255.824219 611.554688 C 256.457031 611.425781 257.082031 611.269531 257.699219 611.082031 C 258.320312 610.894531 258.925781 610.679688 259.523438 610.429688 C 260.121094 610.183594 260.703125 609.90625 261.273438 609.601562 C 261.84375 609.296875 262.394531 608.96875 262.933594 608.609375 C 263.46875 608.25 263.988281 607.863281 264.488281 607.453125 C 264.988281 607.046875 265.464844 606.613281 265.921875 606.15625 C 266.378906 605.699219 266.8125 605.21875 267.222656 604.722656 C 267.632812 604.222656 268.015625 603.703125 268.375 603.167969 C 268.734375 602.628906 269.066406 602.074219 269.371094 601.507812 C 269.675781 600.9375 269.949219 600.351562 270.199219 599.757812 C 270.445312 599.160156 270.664062 598.550781 270.851562 597.933594 C 271.039062 597.316406 271.195312 596.691406 271.320312 596.054688 C 271.445312 595.421875 271.539062 594.785156 271.605469 594.140625 C 271.667969 593.5 271.699219 592.855469 271.699219 592.207031 C 271.699219 591.5625 271.667969 590.917969 271.605469 590.273438 C 271.539062 589.632812 271.445312 588.992188 271.320312 588.359375 C 271.195312 587.726562 271.039062 587.101562 270.851562 586.484375 C 270.664062 585.863281 270.445312 585.257812 270.199219 584.660156 C 269.949219 584.0625 269.675781 583.480469 269.371094 582.910156 C 269.066406 582.339844 268.734375 581.789062 268.375 581.25 C 268.015625 580.714844 267.632812 580.195312 267.222656 579.695312 C 266.8125 579.195312 266.378906 578.71875 265.921875 578.261719 C 265.464844 577.804688 264.988281 577.371094 264.488281 576.960938 C 263.988281 576.550781 263.46875 576.167969 262.933594 575.808594 C 262.394531 575.449219 261.84375 575.117188 261.273438 574.8125 C 260.703125 574.507812 260.121094 574.234375 259.523438 573.984375 C 258.925781 573.738281 258.320312 573.523438 257.699219 573.335938 C 257.082031 573.148438 256.457031 572.988281 255.824219 572.863281 C 255.191406 572.738281 254.550781 572.644531 253.910156 572.578125 C 253.265625 572.515625 252.621094 572.484375 251.976562 572.484375 Z M 354.539062 572.484375 C 353.890625 572.484375 353.246094 572.515625 352.605469 572.578125 C 351.960938 572.644531 351.324219 572.738281 350.691406 572.863281 C 350.058594 572.988281 349.429688 573.148438 348.8125 573.335938 C 348.195312 573.523438 347.585938 573.738281 346.992188 573.984375 C 346.394531 574.234375 345.808594 574.507812 345.242188 574.8125 C 344.671875 575.117188 344.117188 575.449219 343.582031 575.808594 C 343.042969 576.167969 342.523438 576.550781 342.027344 576.960938 C 341.527344 577.371094 341.046875 577.804688 340.589844 578.261719 C 340.136719 578.71875 339.703125 579.195312 339.292969 579.695312 C 338.882812 580.195312 338.496094 580.714844 338.136719 581.25 C 337.78125 581.789062 337.449219 582.339844 337.144531 582.910156 C 336.839844 583.480469 336.5625 584.0625 336.316406 584.660156 C 336.070312 585.257812 335.851562 585.863281 335.664062 586.484375 C 335.476562 587.101562 335.320312 587.726562 335.195312 588.359375 C 335.066406 588.992188 334.972656 589.632812 334.910156 590.273438 C 334.847656 590.917969 334.816406 591.5625 334.816406 592.207031 C 334.816406 592.855469 334.847656 593.5 334.910156 594.140625 C 334.972656 594.785156 335.066406 595.421875 335.195312 596.054688 C 335.320312 596.691406 335.476562 597.316406 335.664062 597.933594 C 335.851562 598.550781 336.070312 599.160156 336.316406 599.757812 C 336.5625 600.351562 336.839844 600.9375 337.144531 601.507812 C 337.449219 602.074219 337.78125 602.628906 338.136719 603.167969 C 338.496094 603.703125 338.882812 604.222656 339.292969 604.722656 C 339.703125 605.21875 340.136719 605.699219 340.589844 606.15625 C 341.046875 606.613281 341.527344 607.046875 342.027344 607.453125 C 342.523438 607.863281 343.042969 608.25 343.582031 608.609375 C 344.117188 608.96875 344.671875 609.296875 345.242188 609.601562 C 345.808594 609.90625 346.394531 610.183594 346.992188 610.429688 C 347.585938 610.679688 348.195312 610.894531 348.8125 611.082031 C 349.429688 611.269531 350.058594 611.425781 350.691406 611.554688 C 351.324219 611.679688 351.960938 611.773438 352.605469 611.835938 C 353.246094 611.902344 353.890625 611.933594 354.539062 611.933594 C 355.183594 611.933594 355.828125 611.902344 356.472656 611.835938 C 357.113281 611.773438 357.753906 611.679688 358.386719 611.554688 C 359.019531 611.425781 359.644531 611.269531 360.265625 611.082031 C 360.882812 610.894531 361.488281 610.679688 362.085938 610.429688 C 362.683594 610.183594 363.265625 609.90625 363.835938 609.601562 C 364.40625 609.296875 364.960938 608.96875 365.496094 608.609375 C 366.035156 608.25 366.550781 607.863281 367.050781 607.453125 C 367.550781 607.046875 368.027344 606.613281 368.484375 606.15625 C 368.941406 605.699219 369.375 605.21875 369.785156 604.722656 C 370.195312 604.222656 370.578125 603.703125 370.9375 603.167969 C 371.296875 602.628906 371.628906 602.074219 371.933594 601.507812 C 372.238281 600.9375 372.511719 600.351562 372.761719 599.757812 C 373.007812 599.160156 373.226562 598.550781 373.414062 597.933594 C 373.601562 597.316406 373.757812 596.691406 373.882812 596.054688 C 374.007812 595.421875 374.105469 594.785156 374.167969 594.140625 C 374.230469 593.5 374.261719 592.855469 374.261719 592.207031 C 374.261719 591.5625 374.230469 590.917969 374.167969 590.273438 C 374.105469 589.632812 374.007812 588.992188 373.882812 588.359375 C 373.757812 587.726562 373.601562 587.101562 373.414062 586.484375 C 373.226562 585.863281 373.007812 585.257812 372.761719 584.660156 C 372.511719 584.0625 372.238281 583.480469 371.933594 582.910156 C 371.628906 582.339844 371.296875 581.789062 370.9375 581.25 C 370.578125 580.714844 370.195312 580.195312 369.785156 579.695312 C 369.375 579.195312 368.941406 578.71875 368.484375 578.261719 C 368.027344 577.804688 367.550781 577.371094 367.050781 576.960938 C 366.550781 576.550781 366.035156 576.167969 365.496094 575.808594 C 364.960938 575.449219 364.40625 575.117188 363.835938 574.8125 C 363.265625 574.507812 362.683594 574.234375 362.085938 573.984375 C 361.488281 573.738281 360.882812 573.523438 360.265625 573.335938 C 359.644531 573.148438 359.019531 572.988281 358.386719 572.863281 C 357.753906 572.738281 357.113281 572.644531 356.472656 572.578125 C 355.828125 572.515625 355.183594 572.484375 354.539062 572.484375 Z M 374.460938 643.273438 C 373.796875 643.269531 373.144531 643.347656 372.496094 643.507812 C 371.851562 643.671875 371.238281 643.910156 370.652344 644.226562 C 370.070312 644.542969 369.53125 644.925781 369.046875 645.378906 C 368.558594 645.832031 368.132812 646.335938 367.773438 646.894531 C 367.773438 646.894531 342.199219 682.9375 303.257812 682.9375 C 264.3125 682.9375 238.738281 646.894531 238.738281 646.894531 C 238.371094 646.34375 237.941406 645.851562 237.445312 645.410156 C 236.953125 644.964844 236.414062 644.59375 235.828125 644.289062 C 235.238281 643.980469 234.625 643.753906 233.980469 643.601562 C 233.335938 643.453125 232.683594 643.382812 232.019531 643.398438 C 231.304688 643.414062 230.601562 643.523438 229.914062 643.730469 C 229.226562 643.9375 228.582031 644.234375 227.976562 644.617188 C 227.371094 645 226.824219 645.457031 226.34375 645.988281 C 225.863281 646.519531 225.460938 647.105469 225.140625 647.746094 C 224.816406 648.386719 224.585938 649.058594 224.449219 649.765625 C 224.3125 650.46875 224.269531 651.175781 224.324219 651.890625 C 224.378906 652.605469 224.527344 653.300781 224.773438 653.976562 C 225.019531 654.648438 225.347656 655.277344 225.765625 655.863281 C 225.765625 655.863281 254.816406 698.714844 303.257812 698.714844 C 351.699219 698.714844 380.75 655.863281 380.75 655.863281 C 381.183594 655.277344 381.53125 654.644531 381.789062 653.964844 C 382.046875 653.28125 382.207031 652.578125 382.269531 651.851562 C 382.335938 651.128906 382.296875 650.40625 382.164062 649.691406 C 382.027344 648.976562 381.796875 648.289062 381.46875 647.640625 C 381.144531 646.988281 380.734375 646.390625 380.246094 645.851562 C 379.753906 645.3125 379.199219 644.851562 378.582031 644.46875 C 377.964844 644.082031 377.304688 643.789062 376.605469 643.585938 C 375.90625 643.382812 375.191406 643.277344 374.460938 643.273438 Z M 200.816406 665.449219 C 199.832031 665.449219 198.882812 665.628906 197.964844 665.988281 L 150.628906 683.429688 C 149.441406 683.8125 148.40625 684.4375 147.515625 685.3125 C 146.625 686.1875 145.980469 687.210938 145.574219 688.390625 L 107.222656 749.765625 C 106.914062 750.261719 106.660156 750.789062 106.46875 751.339844 C 106.277344 751.894531 106.148438 752.460938 106.082031 753.042969 C 106.015625 753.625 106.011719 754.207031 106.074219 754.789062 C 106.136719 755.371094 106.265625 755.9375 106.453125 756.492188 C 106.644531 757.046875 106.890625 757.574219 107.199219 758.070312 C 107.503906 758.570312 107.863281 759.03125 108.273438 759.449219 C 108.679688 759.867188 109.132812 760.238281 109.621094 760.554688 C 110.113281 760.875 110.632812 761.136719 111.183594 761.339844 L 145.46875 773.972656 L 145.46875 864.394531 C 145.46875 865.199219 145.589844 865.988281 145.832031 866.757812 C 146.074219 867.527344 146.425781 868.242188 146.886719 868.902344 C 147.347656 869.5625 147.898438 870.140625 148.539062 870.632812 C 149.175781 871.125 149.875 871.511719 150.628906 871.789062 L 300.53125 927.015625 C 301.410156 927.339844 302.320312 927.503906 303.257812 927.503906 C 304.195312 927.503906 305.105469 927.339844 305.984375 927.015625 L 455.882812 871.789062 C 456.640625 871.511719 457.339844 871.125 457.976562 870.632812 C 458.613281 870.140625 459.164062 869.5625 459.625 868.902344 C 460.085938 868.242188 460.4375 867.527344 460.679688 866.757812 C 460.921875 865.988281 461.046875 865.199219 461.046875 864.394531 L 461.046875 773.972656 L 495.332031 761.339844 C 495.878906 761.136719 496.402344 760.875 496.890625 760.554688 C 497.382812 760.238281 497.832031 759.867188 498.242188 759.449219 C 498.648438 759.03125 499.007812 758.570312 499.316406 758.070312 C 499.621094 757.574219 499.871094 757.046875 500.058594 756.492188 C 500.25 755.9375 500.375 755.371094 500.4375 754.789062 C 500.5 754.207031 500.5 753.625 500.433594 753.042969 C 500.367188 752.460938 500.238281 751.894531 500.042969 751.339844 C 499.851562 750.789062 499.601562 750.261719 499.292969 749.765625 L 460.921875 688.359375 C 460.515625 687.1875 459.871094 686.167969 458.984375 685.300781 C 458.097656 684.433594 457.066406 683.808594 455.882812 683.429688 C 455.78125 683.390625 455.679688 683.355469 455.574219 683.324219 L 408.546875 665.988281 C 407.550781 665.601562 406.519531 665.429688 405.449219 665.464844 C 404.996094 665.480469 404.546875 665.535156 404.101562 665.628906 C 403.65625 665.726562 403.222656 665.859375 402.796875 666.027344 C 402.375 666.199219 401.972656 666.402344 401.585938 666.640625 C 401.199219 666.882812 400.835938 667.152344 400.496094 667.457031 C 400.15625 667.757812 399.84375 668.089844 399.5625 668.445312 C 399.277344 668.800781 399.027344 669.179688 398.8125 669.578125 C 398.59375 669.980469 398.410156 670.394531 398.265625 670.824219 C 398.121094 671.257812 398.011719 671.699219 397.945312 672.148438 C 397.875 672.597656 397.84375 673.050781 397.855469 673.503906 C 397.863281 673.960938 397.910156 674.410156 398 674.859375 C 398.085938 675.304688 398.210938 675.742188 398.371094 676.164062 C 398.535156 676.589844 398.734375 677 398.964844 677.390625 C 399.199219 677.78125 399.464844 678.148438 399.761719 678.492188 C 400.058594 678.839844 400.382812 679.15625 400.734375 679.445312 C 401.085938 679.734375 401.460938 679.988281 401.855469 680.214844 C 402.25 680.4375 402.664062 680.628906 403.09375 680.78125 L 430.351562 690.828125 L 303.257812 737.65625 L 176.164062 690.828125 L 203.421875 680.78125 C 203.855469 680.625 204.273438 680.4375 204.675781 680.210938 C 205.078125 679.984375 205.457031 679.722656 205.816406 679.429688 C 206.171875 679.136719 206.5 678.8125 206.796875 678.460938 C 207.097656 678.113281 207.367188 677.738281 207.597656 677.339844 C 207.832031 676.941406 208.03125 676.527344 208.191406 676.09375 C 208.355469 675.660156 208.476562 675.21875 208.558594 674.765625 C 208.644531 674.3125 208.6875 673.851562 208.6875 673.390625 C 208.691406 672.929688 208.65625 672.472656 208.578125 672.015625 C 208.5 671.5625 208.382812 671.117188 208.230469 670.683594 C 208.074219 670.246094 207.882812 669.828125 207.652344 669.429688 C 207.425781 669.027344 207.164062 668.648438 206.867188 668.296875 C 206.574219 667.941406 206.25 667.613281 205.898438 667.316406 C 205.542969 667.015625 205.167969 666.753906 204.769531 666.519531 C 204.371094 666.289062 203.957031 666.09375 203.523438 665.933594 C 203.089844 665.773438 202.644531 665.652344 202.191406 665.570312 C 201.738281 665.488281 201.277344 665.449219 200.816406 665.449219 Z M 156.65625 700.441406 L 291.4375 750.089844 L 291.4375 750.105469 L 260.527344 799.554688 L 125.730469 749.90625 Z M 449.859375 700.441406 L 480.785156 749.90625 L 345.984375 799.554688 L 315.089844 750.105469 Z M 295.367188 773.542969 L 295.367188 908.296875 L 161.246094 858.894531 L 161.246094 779.785156 L 261.082031 816.566406 C 261.503906 816.71875 261.9375 816.839844 262.378906 816.921875 C 262.820312 817 263.265625 817.042969 263.714844 817.050781 C 264.167969 817.054688 264.613281 817.023438 265.058594 816.949219 C 265.5 816.878906 265.9375 816.769531 266.359375 816.625 C 266.785156 816.480469 267.195312 816.300781 267.589844 816.085938 C 267.984375 815.867188 268.359375 815.621094 268.710938 815.339844 C 269.0625 815.0625 269.390625 814.753906 269.691406 814.417969 C 269.988281 814.082031 270.257812 813.726562 270.496094 813.34375 Z M 311.144531 773.542969 L 336.015625 813.34375 C 336.253906 813.726562 336.523438 814.082031 336.824219 814.417969 C 337.125 814.753906 337.449219 815.0625 337.800781 815.339844 C 338.152344 815.621094 338.527344 815.867188 338.921875 816.085938 C 339.316406 816.300781 339.726562 816.480469 340.152344 816.625 C 340.578125 816.769531 341.011719 816.878906 341.457031 816.949219 C 341.902344 817.023438 342.347656 817.054688 342.796875 817.050781 C 343.246094 817.042969 343.691406 817 344.136719 816.921875 C 344.578125 816.839844 345.007812 816.71875 345.429688 816.566406 L 445.265625 779.785156 L 445.265625 858.894531 L 311.144531 908.296875 Z M 311.144531 773.542969 " fill-opacity="1" fill-rule="nonzero"/></g><g transform="matrix(1, 0, 0, 1, 536, 630)"><g clip-path="url(#8f6e7be95b)"><g fill="#ffffff" fill-opacity="1"><g transform="translate(0.217936, 233.234055)"><g><path d="M 73.140625 -79.375 C 53.003906 -85.164062 38.347656 -92.28125 29.171875 -100.71875 C 19.992188 -109.15625 15.40625 -119.570312 15.40625 -131.96875 C 15.40625 -145.988281 21.007812 -157.585938 32.21875 -166.765625 C 43.4375 -175.941406 58.015625 -180.53125 75.953125 -180.53125 C 88.179688 -180.53125 99.085938 -178.164062 108.671875 -173.4375 C 118.253906 -168.707031 125.671875 -162.179688 130.921875 -153.859375 C 136.179688 -145.546875 138.8125 -136.457031 138.8125 -126.59375 L 115.21875 -126.59375 C 115.21875 -137.351562 111.789062 -145.8125 104.9375 -151.96875 C 98.09375 -158.125 88.429688 -161.203125 75.953125 -161.203125 C 64.367188 -161.203125 55.335938 -158.648438 48.859375 -153.546875 C 42.378906 -148.453125 39.140625 -141.382812 39.140625 -132.34375 C 39.140625 -125.082031 42.21875 -118.941406 48.375 -113.921875 C 54.53125 -108.910156 65.003906 -104.328125 79.796875 -100.171875 C 94.597656 -96.015625 106.175781 -91.425781 114.53125 -86.40625 C 122.894531 -81.394531 129.09375 -75.546875 133.125 -68.859375 C 137.164062 -62.171875 139.1875 -54.300781 139.1875 -45.25 C 139.1875 -30.820312 133.554688 -19.265625 122.296875 -10.578125 C 111.046875 -1.890625 96.003906 2.453125 77.171875 2.453125 C 64.941406 2.453125 53.523438 0.109375 42.921875 -4.578125 C 32.328125 -9.273438 24.15625 -15.695312 18.40625 -23.84375 C 12.65625 -32 9.78125 -41.253906 9.78125 -51.609375 L 33.390625 -51.609375 C 33.390625 -40.847656 37.363281 -32.347656 45.3125 -26.109375 C 53.257812 -19.867188 63.878906 -16.75 77.171875 -16.75 C 89.566406 -16.75 99.066406 -19.273438 105.671875 -24.328125 C 112.273438 -29.390625 115.578125 -36.28125 115.578125 -45 C 115.578125 -53.726562 112.519531 -60.476562 106.40625 -65.25 C 100.289062 -70.019531 89.203125 -74.726562 73.140625 -79.375 Z M 73.140625 -79.375 "/></g></g></g><g fill="#ffffff" fill-opacity="1"><g transform="translate(148.81691, 233.234055)"><g><path d="M 47.828125 -164.375 L 47.828125 -132.34375 L 72.53125 -132.34375 L 72.53125 -114.84375 L 47.828125 -114.84375 L 47.828125 -32.78125 C 47.828125 -27.476562 48.925781 -23.5 51.125 -20.84375 C 53.320312 -18.195312 57.070312 -16.875 62.375 -16.875 C 64.988281 -16.875 68.578125 -17.363281 73.140625 -18.34375 L 73.140625 0 C 67.191406 1.632812 61.398438 2.453125 55.765625 2.453125 C 45.660156 2.453125 38.035156 -0.601562 32.890625 -6.71875 C 27.753906 -12.84375 25.1875 -21.53125 25.1875 -32.78125 L 25.1875 -114.84375 L 1.09375 -114.84375 L 1.09375 -132.34375 L 25.1875 -132.34375 L 25.1875 -164.375 Z M 47.828125 -164.375 "/></g></g></g><g fill="#ffffff" fill-opacity="1"><g transform="translate(230.638078, 233.234055)"><g><path d="M 11.125 -67.390625 C 11.125 -80.359375 13.671875 -92.019531 18.765625 -102.375 C 23.867188 -112.726562 30.960938 -120.71875 40.046875 -126.34375 C 49.140625 -131.96875 59.519531 -134.78125 71.1875 -134.78125 C 89.207031 -134.78125 103.78125 -128.539062 114.90625 -116.0625 C 126.039062 -103.59375 131.609375 -87.003906 131.609375 -66.296875 L 131.609375 -64.703125 C 131.609375 -51.816406 129.140625 -40.253906 124.203125 -30.015625 C 119.265625 -19.785156 112.207031 -11.816406 103.03125 -6.109375 C 93.863281 -0.398438 83.328125 2.453125 71.421875 2.453125 C 53.484375 2.453125 38.945312 -3.785156 27.8125 -16.265625 C 16.6875 -28.742188 11.125 -45.253906 11.125 -65.796875 Z M 33.875 -64.703125 C 33.875 -50.023438 37.273438 -38.238281 44.078125 -29.34375 C 50.890625 -20.457031 60.003906 -16.015625 71.421875 -16.015625 C 82.921875 -16.015625 92.050781 -20.519531 98.8125 -29.53125 C 105.582031 -38.539062 108.96875 -51.160156 108.96875 -67.390625 C 108.96875 -81.898438 105.523438 -93.660156 98.640625 -102.671875 C 91.753906 -111.679688 82.601562 -116.1875 71.1875 -116.1875 C 60.007812 -116.1875 50.992188 -111.742188 44.140625 -102.859375 C 37.296875 -93.972656 33.875 -81.253906 33.875 -64.703125 Z M 33.875 -64.703125 "/></g></g></g><g fill="#ffffff" fill-opacity="1"><g transform="translate(373.488789, 233.234055)"><g><path d="M 54.0625 -61.28125 L 39.875 -46.484375 L 39.875 0 L 17.25 0 L 17.25 -187.859375 L 39.875 -187.859375 L 39.875 -74.234375 L 51.984375 -88.796875 L 93.203125 -132.34375 L 120.71875 -132.34375 L 69.21875 -77.046875 L 126.703125 0 L 100.171875 0 Z M 54.0625 -61.28125 "/></g></g></g><g fill="#ffffff" fill-opacity="1"><g transform="translate(500.439985, 233.234055)"><g><path d="M 41.703125 0 L 19.078125 0 L 19.078125 -132.34375 L 41.703125 -132.34375 Z M 17.25 -167.4375 C 17.25 -171.101562 18.367188 -174.203125 20.609375 -176.734375 C 22.847656 -179.265625 26.171875 -180.53125 30.578125 -180.53125 C 34.984375 -180.53125 38.328125 -179.265625 40.609375 -176.734375 C 42.890625 -174.203125 44.03125 -171.101562 44.03125 -167.4375 C 44.03125 -163.769531 42.890625 -160.710938 40.609375 -158.265625 C 38.328125 -155.816406 34.984375 -154.59375 30.578125 -154.59375 C 26.171875 -154.59375 22.847656 -155.816406 20.609375 -158.265625 C 18.367188 -160.710938 17.25 -163.769531 17.25 -167.4375 Z M 17.25 -167.4375 "/></g></g></g><g fill="#ffffff" fill-opacity="1"><g transform="translate(561.224939, 233.234055)"><g><path d="M 47.828125 -164.375 L 47.828125 -132.34375 L 72.53125 -132.34375 L 72.53125 -114.84375 L 47.828125 -114.84375 L 47.828125 -32.78125 C 47.828125 -27.476562 48.925781 -23.5 51.125 -20.84375 C 53.320312 -18.195312 57.070312 -16.875 62.375 -16.875 C 64.988281 -16.875 68.578125 -17.363281 73.140625 -18.34375 L 73.140625 0 C 67.191406 1.632812 61.398438 2.453125 55.765625 2.453125 C 45.660156 2.453125 38.035156 -0.601562 32.890625 -6.71875 C 27.753906 -12.84375 25.1875 -21.53125 25.1875 -32.78125 L 25.1875 -114.84375 L 1.09375 -114.84375 L 1.09375 -132.34375 L 25.1875 -132.34375 L 25.1875 -164.375 Z M 47.828125 -164.375 "/></g></g></g><g fill="#ffffff" fill-opacity="1"><g transform="translate(643.046124, 233.234055)"><g><path d="M 98.828125 0 C 97.515625 -2.601562 96.453125 -7.25 95.640625 -13.9375 C 85.117188 -3.007812 72.5625 2.453125 57.96875 2.453125 C 44.925781 2.453125 34.222656 -1.234375 25.859375 -8.609375 C 17.503906 -15.992188 13.328125 -25.351562 13.328125 -36.6875 C 13.328125 -50.46875 18.566406 -61.171875 29.046875 -68.796875 C 39.523438 -76.421875 54.265625 -80.234375 73.265625 -80.234375 L 95.28125 -80.234375 L 95.28125 -90.625 C 95.28125 -98.539062 92.914062 -104.84375 88.1875 -109.53125 C 83.457031 -114.21875 76.484375 -116.5625 67.265625 -116.5625 C 59.191406 -116.5625 52.421875 -114.519531 46.953125 -110.4375 C 41.492188 -106.363281 38.765625 -101.429688 38.765625 -95.640625 L 16.015625 -95.640625 C 16.015625 -102.242188 18.359375 -108.625 23.046875 -114.78125 C 27.742188 -120.9375 34.109375 -125.804688 42.140625 -129.390625 C 50.171875 -132.984375 58.992188 -134.78125 68.609375 -134.78125 C 83.859375 -134.78125 95.804688 -130.96875 104.453125 -123.34375 C 113.097656 -115.71875 117.582031 -105.222656 117.90625 -91.859375 L 117.90625 -30.9375 C 117.90625 -18.789062 119.453125 -9.128906 122.546875 -1.953125 L 122.546875 0 Z M 61.28125 -17.25 C 68.375 -17.25 75.097656 -19.082031 81.453125 -22.75 C 87.816406 -26.414062 92.425781 -31.1875 95.28125 -37.0625 L 95.28125 -64.21875 L 77.546875 -64.21875 C 49.816406 -64.21875 35.953125 -56.101562 35.953125 -39.875 C 35.953125 -32.78125 38.316406 -27.234375 43.046875 -23.234375 C 47.773438 -19.242188 53.851562 -17.25 61.28125 -17.25 Z M 61.28125 -17.25 "/></g></g></g></g></g></svg>